# xmcd
#
# Track frame offsets:
#	150
#	24263
#	45712
#	65135
#	80633
#	102360
#	115862
#	138341
#	166990
#	188728
#	204785
#	219069
#	240426
#
# Disc length: 3500 seconds
#
# Revision: 1
# Processed by: cddbd v1.5.2PL0 Copyright (c) Steve Scherf et al.
# Submitted via: audiograbber 1.83.01
#
DISCID=a60daa0d
DTITLE=Emmylou Harris - Live In Germany 2000 (with Spyboy featuring Buddy Mille
DTITLE=r)
DYEAR=2000
DGENRE=Country
TTITLE0=The Pearl
TTITLE1=I Don't Wanna Talk About It Now
TTITLE2=I Ain't Living Long Like This
TTITLE3=Raise The Dead
TTITLE4=Red Dirt Girl
TTITLE5=Love Hurts
TTITLE6=Hour Of Gold
TTITLE7=Deeper Well
TTITLE8=Michaelangelo
TTITLE9=Boy From Tupelo
TTITLE10=Wheels 
TTITLE11=Born To Run 
TTITLE12=Hickory Wind
EXTD=
EXTT0=
EXTT1=
EXTT2=
EXTT3=
EXTT4=
EXTT5=
EXTT6=
EXTT7=
EXTT8=
EXTT9=
EXTT10=
EXTT11=
EXTT12=
PLAYORDER=
